#!OML:ASF F:\VICON\USERDATA\INSTALL\rory3\rory3.ASF
:FULLY-SPECIFIED
:DEGREES
2227
root 3.75618 17.7018 -9.91172 1063.74 -76.1553 -1065.82
lowerback 11.7675 -0.144952 -5.25219
upperback 0.474079 -0.946619 -0.263685
thorax -6.03327 -0.334698 2.84588
lowerneck -22.2167 -3.62597 -10.4879
upperneck 31.9186 -4.49621 7.62135
head 15.356 -2.29485 4.10981
rclavicle -6.64065e-015 -9.93923e-015
rhumerus -36.9491 -12.1574 -80.5382
rradius 29.7708
rwrist 5.08714
rhand -16.244 7.83492
rfingers 7.12502
rthumb 9.96478 -21.9092
lclavicle -6.64065e-015 -9.93923e-015
lhumerus -29.2539 1.01653 85.9115
lradius 38.1138
lwrist -3.00802
lhand -17.7922 23.6707
lfingers 7.12502
lthumb 8.47086 53.4808
rfemur -21.9743 6.02965 11.4365
rtibia 23.901
rfoot -3.92605 10.5618
rtoes 0.114174
lfemur 15.1169 -8.01052 -30.6092
ltibia 12.2321
lfoot -8.65889 -11.2411
ltoes -9.95408
2228
root 3.62565 17.7106 -9.90597 1064.15 -75.7697 -1066.1
lowerback 11.6989 -0.130723 -5.20628
upperback 0.436043 -0.916468 -0.25067
thorax -6.03815 -0.319654 2.82795
lowerneck -22.252 -3.70335 -10.788
upperneck 32.0047 -4.53028 7.72877
head 15.4228 -2.33275 4.20633
rclavicle 2.65378e-014 0
rhumerus -37.0053 -12.2186 -80.4174
rradius 29.4599
rwrist 5.04247
rhand -16.2936 7.86483
rfingers 7.12502
rthumb 9.91695 -21.8816
lclavicle 2.65378e-014 0
lhumerus -29.4329 1.05456 85.9356
lradius 38.0213
lwrist -2.9793
lhand -17.4948 23.7938
lfingers 7.12502
lthumb 8.75784 53.5921
rfemur -21.7862 6.01084 11.5496
rtibia 24.1842
rfoot -2.77699 11.5228
rtoes 4.89935
lfemur 14.7435 -8.53024 -30.6599
ltibia 13.5161
lfoot -8.39724 -11.3344
ltoes -11.2032
2229
root 3.49369 17.7237 -9.90495 1065.29 -75.3231 -1067.15
lowerback 11.6567 -0.228579 -5.04364
upperback 0.39571 -1.02183 -0.247074
thorax -6.05047 -0.374206 2.75688
lowerneck -22.3518 -3.62233 -10.7077
upperneck 32.1531 -4.47123 7.80689
head 15.5071 -2.2897 4.24488
rclavicle -1.85056e-014 -5.61567e-015
rhumerus -37.0324 -12.2801 -80.5304
rradius 29.16
rwrist 5.14039
rhand -16.4397 7.81231
rfingers 7.12502
rthumb 9.77595 -21.9408
lclavicle -1.85056e-014 -5.61567e-015
lhumerus -29.5542 1.2922 85.6965
lradius 37.7372
lwrist -3.16422
lhand -17.494 23.7378
lfingers 7.12502
lthumb 8.75866 53.5361
rfemur -21.5499 6.0397 11.8581
rtibia 24.4155
rfoot -1.7497 12.4839
rtoes 9.49143
lfemur 14.2518 -9.04596 -30.4316
ltibia 14.9449
lfoot -7.90449 -11.6715
ltoes -11.0964
2230
root 3.35517 17.7443 -9.90521 1066.76 -75.0054 -1068.67
lowerback 11.675 -0.221234 -4.69907
upperback 0.40378 -0.961837 -0.182589
thorax -6.0609 -0.353121 2.62091
lowerneck -22.4423 -3.62231 -10.6803
upperneck 32.2534 -4.45659 7.75514
head 15.5714 -2.28741 4.22522
rclavicle 2.21738e-014 -4.07509e-015
rhumerus -37.0863 -12.5551 -80.4685
rradius 28.851
rwrist 5.34821
rhand -16.4932 7.75132
rfingers 7.12502
rthumb 9.72432 -22.0042
lclavicle 2.21738e-014 -4.07509e-015
lhumerus -29.6584 1.55769 85.6061
lradius 37.3804
lwrist -3.43759
lhand -17.4856 23.2216
lfingers 7.12502
lthumb 8.76677 53.0195
rfemur -21.1375 6.37436 12.262
rtibia 24.5835
rfoot -0.715691 13.1865
rtoes 15.4274
lfemur 13.8042 -9.37699 -29.9879
ltibia 16.5459
lfoot -7.50527 -12.1938
ltoes -11.3933
2231
root 3.21463 17.7609 -9.90057 1067.92 -74.8168 -1069.93
lowerback 11.7334 -0.126 -4.34857
upperback 0.402936 -0.786543 -0.11617
thorax -6.11151 -0.274654 2.46513
lowerneck -22.3344 -3.67041 -10.8101
upperneck 32.2347 -4.50521 7.80951
head 15.5504 -2.31727 4.26127
rclavicle 1.43405e-014 -1.14301e-015
rhumerus -37.2051 -12.6775 -80.4021
rradius 28.5932
rwrist 5.15244
rhand -16.4935 7.58475
rfingers 7.12502
rthumb 9.72408 -22.1708
lclavicle 1.43405e-014 -1.14301e-015
lhumerus -29.9132 1.54706 85.6411
lradius 37.1792
lwrist -3.35065
lhand -17.1496 23.3107
lfingers 7.12502
lthumb 9.09098 53.0948
rfemur -20.6434 6.57747 12.6642
rtibia 24.7066
rfoot -1.75993 11.7895
rtoes 11.5755
lfemur 13.4185 -9.91465 -29.7427
ltibia 18.2447
lfoot -7.19711 -12.2893
ltoes -12.7213
2232
root 3.07401 17.7749 -9.88826 1068.67 -74.6604 -1070.75
lowerback 11.7499 -0.0637421 -4.06664
upperback 0.401358 -0.665786 -0.106926
thorax -6.13388 -0.222719 2.29586
lowerneck -22.2127 -3.6551 -10.7866
upperneck 32.1504 -4.49494 7.80485
head 15.4801 -2.3094 4.25339
rclavicle 4.26766e-015 5.51627e-015
rhumerus -37.3157 -12.6432 -80.4293
rradius 28.3796
rwrist 4.89783
rhand -16.6087 7.52374
rfingers 7.12502
rthumb 9.61285 -22.2369
lclavicle 4.26766e-015 5.51627e-015
lhumerus -30.3188 1.27674 85.5975
lradius 37.1069
lwrist -3.1533
lhand -17.1659 23.9625
lfingers 7.12502
lthumb 9.07525 53.7472
rfemur -20.1414 6.68726 12.9598
rtibia 24.823
rfoot -2.91026 9.84712
rtoes 5.62752
lfemur 12.9528 -10.4966 -29.6661
ltibia 20.022
lfoot -6.49372 -12.3707
ltoes -12.7292
2233
root 2.93524 17.7932 -9.87592 1070.13 -74.485 -1072.26
lowerback 11.7155 -0.0632227 -3.56195
upperback 0.426141 -0.59045 -0.042282
thorax -6.09694 -0.200133 2.06598
lowerneck -22.1659 -3.63933 -10.7888
upperneck 32.0647 -4.42602 7.70683
head 15.4172 -2.29074 4.22122
rclavicle -4.04993e-014 -5.96354e-016
rhumerus -37.3331 -13.0072 -80.1597
rradius 27.9854
rwrist 5.9794
rhand -16.2248 7.8461
rfingers 7.12502
rthumb 9.98327 -21.8971
lclavicle -4.04993e-014 -5.96354e-016
lhumerus -30.6138 1.34707 85.5047
lradius 36.8493
lwrist -3.04401
lhand -17.87 24.1467
lfingers 7.12502
lthumb 8.39584 53.9598
rfemur -19.6374 6.68091 13.4472
rtibia 24.9274
rfoot -3.73802 8.24516
rtoes 1.19414
lfemur 12.3501 -10.82 -29.256
ltibia 21.8556
lfoot -5.54302 -12.8159
ltoes -12.8038
2234
root 2.79697 17.8105 -9.86521 1071.22 -74.2214 -1073.35
lowerback 11.6481 -0.0782014 -3.22121
upperback 0.440864 -0.558495 0.00189022
thorax -6.04774 -0.194331 1.91401
lowerneck -22.188 -3.61664 -10.7998
upperneck 32.068 -4.38178 7.70902
head 15.4185 -2.27163 4.23344
rclavicle 2.09656e-015 2.98177e-016
rhumerus -37.3539 -13.1415 -80.0066
rradius 27.6623
rwrist 6.85904
rhand -15.9386 8.11526
rfingers 7.12502
rthumb 10.2594 -21.6145
lclavicle 2.09656e-015 2.98177e-016
lhumerus -30.7614 1.68597 85.3466
lradius 36.3786
lwrist -2.95279
lhand -18.7631 24.277
lfingers 7.12502
lthumb 7.53377 54.1228
rfemur -19.1601 6.36006 13.8329
rtibia 24.9958
rfoot -4.11296 7.98533
rtoes 0.564436
lfemur 11.6623 -11.0781 -28.9241
ltibia 23.7161
lfoot -4.75165 -13.3429
ltoes -13.9407
2235
root 2.65841 17.8236 -9.85544 1071.79 -73.9399 -1073.96
lowerback 11.5903 -0.0555281 -3.11353
upperback 0.514447 -0.508096 0.0525336
thorax -5.94059 -0.174895 1.89723
lowerneck -22.3678 -3.60473 -10.7534
upperneck 32.1827 -4.36965 7.719
head 15.5111 -2.25794 4.23801
rclavicle 2.72801e-014 3.18055e-015
rhumerus -37.3349 -12.3172 -80.5234
rradius 27.7169
rwrist 5.07279
rhand -14.9569 8.2798
rfingers 7.12502
rthumb 11.2063 -21.4009
lclavicle 2.72801e-014 3.18055e-015
lhumerus -30.85 2.17494 85.1599
lradius 35.9712
lwrist -3.29862
lhand -18.8211 24.6823
lfingers 7.12502
lthumb 7.47779 54.5302
rfemur -18.5904 5.98456 14.0934
rtibia 25.0116
rfoot -4.39543 8.70642
rtoes 0.468406
lfemur 10.9856 -11.2958 -28.7042
ltibia 25.6155
lfoot -3.71183 -13.9625
ltoes -13.6224
2236
root 2.52099 17.8389 -9.85192 1072.55 -73.573 -1074.75
lowerback 11.5109 -0.0468674 -2.97009
upperback 0.614035 -0.469712 0.126024
thorax -5.79325 -0.16293 1.88598
lowerneck -22.5827 -3.63192 -10.9198
upperneck 32.3253 -4.37815 7.86856
head 15.6395 -2.26036 4.3389
rclavicle 4.22293e-014 2.18663e-015
rhumerus -37.2318 -12.4277 -80.4617
rradius 27.5598
rwrist 5.39781
rhand -14.2716 8.39283
rfingers 7.12502
rthumb 11.8673 -21.2509
lclavicle 4.22293e-014 2.18663e-015
lhumerus -30.9637 2.88539 84.9687
lradius 35.6593
lwrist -3.85276
lhand -18.7053 24.8811
lfingers 7.12502
lthumb 7.58964 54.725
rfemur -17.9932 5.81583 14.3936
rtibia 25.0457
rfoot -4.86508 9.33322
rtoes -0.497165
lfemur 10.2099 -11.3428 -28.2593
ltibia 27.4903
lfoot -2.00509 -14.9252
ltoes -11.1656
2237
root 2.38509 17.8549 -9.85265 1073.34 -73.155 -1075.49
lowerback 11.3225 -0.0498044 -2.77294
upperback 0.688821 -0.440547 0.13522
thorax -5.61159 -0.157379 1.77753
lowerneck -22.6274 -3.68042 -11.0653
upperneck 32.28 -4.41698 7.9808
head 15.6419 -2.27491 4.40492
rclavicle -3.48867e-014 -8.69683e-015
rhumerus -37.0538 -12.5614 -80.5388
rradius 27.3589
rwrist 5.50051
rhand -14.4073 8.26906
rfingers 7.12502
rthumb 11.7364 -21.3822
lclavicle -3.48867e-014 -8.69683e-015
lhumerus -31.1624 3.42641 84.7315
lradius 35.3835
lwrist -4.04882
lhand -18.9329 24.4194
lfingers 7.12502
lthumb 7.36989 54.2711
rfemur -17.4891 5.64093 14.7111
rtibia 25.0752
rfoot -5.37216 9.40467
rtoes -1.23751
lfemur 9.26934 -11.2977 -27.7119
ltibia 29.3204
lfoot 0.0580644 -16.0034
ltoes -8.99616
